<svg width="40" height="40" viewBox="0 0 40 40" fill="none" xmlns="http://www.w3.org/2000/svg">
<path d="M40 40H0V0H40V40ZM27.9941 15.4248C26.698 15.4087 25.4299 15.8035 24.3721 16.5527C23.3142 17.3021 22.5214 18.3675 22.1064 19.5957C21.7976 20.4687 21.6419 21.3885 21.6475 22.3145C21.6344 23.2562 21.7844 24.1934 22.0908 25.084C22.3638 25.8807 22.7884 26.6173 23.3408 27.2529C23.8954 27.8596 24.5763 28.3379 25.335 28.6543C26.1737 28.9966 27.0727 29.1672 27.9785 29.1553C29.2476 29.1956 30.4978 28.8399 31.5557 28.1377C32.6584 27.3118 33.4371 26.1255 33.7559 24.7852H30.7637C30.5975 25.2559 30.2808 25.6585 29.8623 25.9307C29.3478 26.3034 28.725 26.4965 28.0898 26.4805C27.6893 26.5057 27.2873 26.4501 26.9092 26.3154C26.531 26.1807 26.1841 25.9701 25.8896 25.6973C25.3066 24.9885 25.0206 24.081 25.0928 23.166H34.0039C34.0709 22.1922 33.9918 21.2137 33.7676 20.2637C33.5631 19.3789 33.1918 18.5405 32.6748 17.7939C32.1695 17.0826 31.5092 16.4947 30.7441 16.0752C29.8977 15.6285 28.951 15.4048 27.9941 15.4248ZM14.29 10.833H6.25V28.8174H14.5312C15.2853 28.8192 16.0359 28.7176 16.7627 28.5166C17.4637 28.3271 18.1242 28.0108 18.7109 27.583C19.2807 27.1505 19.741 26.5906 20.0557 25.9482C20.396 25.2117 20.5646 24.4069 20.5469 23.5957C20.5778 22.5782 20.3074 21.5739 19.7705 20.709C19.2113 19.8929 18.379 19.3034 17.4238 19.0459C18.1278 18.7155 18.7299 18.2002 19.165 17.5557C19.5785 16.8734 19.7817 16.0843 19.75 15.2871C19.7686 14.5611 19.6336 13.8394 19.3545 13.1689C19.1116 12.6237 18.7299 12.1517 18.2471 11.8008C17.7242 11.4479 17.1388 11.1971 16.5225 11.0625C15.7904 10.8963 15.0406 10.8191 14.29 10.833ZM14.0977 20.8115C14.7999 20.7721 15.4942 20.9784 16.0605 21.3955C16.3278 21.6476 16.5342 21.9578 16.6631 22.3018C16.7919 22.6456 16.8404 23.0145 16.8047 23.3799C16.8243 23.7811 16.748 24.1816 16.583 24.5479C16.4408 24.8349 16.2285 25.0813 15.9658 25.2646C15.6975 25.448 15.3964 25.5793 15.0791 25.6494C14.7317 25.7303 14.3752 25.7685 14.0186 25.7637H10.001V20.8115H14.0977ZM27.8848 18.1406C28.2365 18.1165 28.5897 18.1673 28.9199 18.291C29.25 18.4147 29.5496 18.6082 29.7988 18.8574L29.8018 18.8584C30.2657 19.4522 30.5398 20.1727 30.5879 20.9248H25.0684C25.0885 20.6363 25.1417 20.3507 25.2266 20.0742C25.3208 19.7429 25.4761 19.4323 25.6846 19.1582C25.92 18.8657 26.2101 18.6215 26.5391 18.4404C26.954 18.2258 27.418 18.1228 27.8848 18.1406ZM13.54 13.9209C13.864 13.9149 14.1878 13.9433 14.5059 14.0049C14.7989 14.0526 15.0789 14.1608 15.3281 14.3223C15.5743 14.469 15.7735 14.6839 15.9014 14.9404C16.052 15.2625 16.1227 15.6165 16.1074 15.9717C16.1343 16.2758 16.0901 16.5824 15.9775 16.8662C15.8649 17.15 15.687 17.4034 15.459 17.6064C14.9827 17.9549 14.4022 18.1317 13.8125 18.1074V18.123H10.001V13.9209H13.54ZM24.3564 12.0342V13.8018H31.2725V12.0342H24.3564Z" fill="#75BF44"/>
</svg>
