<svg width="40" height="40" viewBox="0 0 40 40" fill="none" xmlns="http://www.w3.org/2000/svg">
<path d="M40 40H0V0H40V40ZM19.998 5.4541C16.0502 5.45411 15.5541 5.4714 14.0029 5.54199C12.4546 5.61292 11.3974 5.8581 10.4727 6.21777C9.5161 6.58928 8.70489 7.08677 7.89648 7.89551C7.08746 8.70395 6.59048 9.51539 6.21777 10.4717C5.85719 11.3968 5.6117 12.4542 5.54199 14.002C5.4726 15.5535 5.4541 16.0497 5.4541 20C5.4541 23.9503 5.47169 24.4446 5.54199 25.9961C5.6132 27.5445 5.85841 28.6015 6.21777 29.5264C6.58958 30.483 7.08674 31.295 7.89551 32.1035C8.70359 32.9125 9.51574 33.4107 10.4717 33.7822C11.397 34.1418 12.4541 34.3871 14.002 34.458C15.5534 34.5286 16.0491 34.5459 19.999 34.5459C23.9493 34.5459 24.4437 34.5286 25.9951 34.458C27.5435 34.3871 28.6019 34.1419 29.5273 33.7822C30.4835 33.4108 31.2936 32.9124 32.1016 32.1035C32.9106 31.295 33.4076 30.4827 33.7803 29.5264C34.1378 28.6013 34.3833 27.5439 34.4561 25.9961C34.5257 24.4448 34.5439 23.9501 34.5439 20C34.5439 16.0497 34.5257 15.5535 34.4561 14.002C34.3833 12.4537 34.1378 11.3964 33.7803 10.4717C33.4076 9.51522 32.9105 8.70386 32.1016 7.89551C31.2926 7.08649 30.4838 6.58897 29.5264 6.21777C28.5992 5.8581 27.5414 5.61292 25.9932 5.54199C24.442 5.4714 23.9476 5.45411 19.998 5.4541ZM18.6953 8.07617C19.0826 8.07557 19.5155 8.07617 20.001 8.07617C23.8841 8.07617 24.3445 8.08949 25.8779 8.15918C27.2957 8.22401 28.0654 8.4611 28.5781 8.66016C29.2569 8.92378 29.7413 9.239 30.25 9.74805C30.7591 10.2571 31.0746 10.7421 31.3389 11.4209C31.5379 11.933 31.7743 12.703 31.8389 14.1211C31.9086 15.6543 31.9238 16.1154 31.9238 19.9971C31.9238 23.8782 31.9085 24.3391 31.8389 25.8721C31.774 27.29 31.5379 28.0601 31.3389 28.5723C31.0753 29.251 30.759 29.7344 30.25 30.2432C29.7409 30.7523 29.2572 31.0674 28.5781 31.3311C28.066 31.531 27.2958 31.7672 25.8779 31.832C24.3447 31.9017 23.8841 31.917 20.001 31.917C16.1172 31.917 15.6563 31.9017 14.123 31.832C12.7054 31.7666 11.9358 31.5301 11.4229 31.3311C10.7442 31.0675 10.259 30.7521 9.75 30.2432C9.24093 29.7341 8.92537 29.2504 8.66113 28.5713C8.46205 28.0592 8.2247 27.2893 8.16016 25.8711C8.09047 24.3379 8.07715 23.8772 8.07715 19.9932C8.07715 16.1089 8.09046 15.6505 8.16016 14.1172C8.225 12.6994 8.46208 11.9297 8.66113 11.417C8.92476 10.7382 9.24092 10.2532 9.75 9.74414C10.2591 9.23508 10.7441 8.91951 11.4229 8.65527C11.9355 8.45532 12.7055 8.21944 14.123 8.1543C15.4647 8.09369 15.9849 8.0753 18.6953 8.07227V8.07617ZM20 12.5303C15.8753 12.5306 12.5313 15.8751 12.5312 20C12.5312 24.1252 15.8759 27.4678 20.001 27.4678C24.1258 27.4676 27.4688 24.125 27.4688 20C27.4687 15.8749 24.125 12.5303 20 12.5303ZM20.001 15.1514C22.6783 15.1516 24.8486 17.3223 24.8486 20C24.8486 22.6775 22.6783 24.8484 20.001 24.8486C17.3232 24.8486 15.1523 22.6776 15.1523 20C15.1524 17.3221 17.3232 15.1514 20.001 15.1514ZM27.7646 10.4912C26.8012 10.4912 26.0198 11.2716 26.0195 12.2354C26.0195 13.199 26.801 13.9814 27.7646 13.9814C28.7282 13.9814 29.5098 13.199 29.5098 12.2354C29.5095 11.2719 28.7281 10.4903 27.7646 10.4902V10.4912Z" fill="#75BF44"/>
</svg>
