<svg width="40" height="40" viewBox="0 0 40 40" fill="none" xmlns="http://www.w3.org/2000/svg">
<path d="M40 40H0V0H40V40ZM20 5.83301C12.1791 5.83301 5.83301 12.1791 5.83301 20C5.83301 27.8209 12.1791 34.167 20 34.167C27.8055 34.167 34.167 27.8209 34.167 20C34.167 12.1791 27.8055 5.83301 20 5.83301ZM22.1514 21.9668C23.8568 26.3764 24.548 30.0793 24.7324 31.1396C23.2727 31.7696 21.6748 32.1074 20 32.1074C17.2036 32.1074 14.6227 31.1546 12.5791 29.5566C12.7961 29.1076 15.255 24.3776 22.0742 21.9971C22.1049 21.9818 22.1207 21.9822 22.1514 21.9668ZM24.3945 21.4141C28.1897 20.8148 31.509 21.7973 31.9238 21.9355C31.4014 25.3005 29.4647 28.2047 26.7451 30.0332C26.6221 29.2951 25.9768 25.7616 24.3945 21.4141ZM20.3223 17.9258C20.6756 18.6017 20.9984 19.293 21.3057 19.9844C21.1522 20.0304 20.9836 20.077 20.8301 20.123C14.5918 22.1359 11.2727 27.6367 10.9961 28.0977C9.07549 25.962 7.89265 23.1193 7.89258 20.0156V19.6465C8.417 19.6619 14.2851 19.7384 20.3223 17.9258ZM29.3574 12.3633C31.0476 14.4222 32.062 17.05 32.0928 19.8926C31.6933 19.8157 27.6975 19.0018 23.6719 19.5088C23.5797 19.3091 23.5033 19.093 23.4111 18.8779C23.1654 18.2943 22.8888 17.6953 22.6123 17.127C27.0681 15.3139 29.0962 12.7013 29.3574 12.3633ZM14.8525 9.05957C15.1752 9.48977 17.3261 12.4863 19.3389 16.0508C13.6846 17.5565 8.6911 17.5264 8.15332 17.5264C8.93693 13.7773 11.4722 10.6575 14.8525 9.05957ZM20 7.92285C23.0729 7.92285 25.8848 9.07507 28.0205 10.9648C27.8054 11.2721 25.977 13.7158 21.6748 15.3291C19.6929 11.688 17.4957 8.70761 17.1572 8.24609C18.0638 8.03098 19.0166 7.92285 20 7.92285Z" fill="#75BF44"/>
</svg>
