<svg width="40" height="40" viewBox="0 0 40 40" fill="none" xmlns="http://www.w3.org/2000/svg">
<path d="M40 40H0V0H40V40ZM5.95312 14.9863V34.0469H12.0029V14.9863H5.95312ZM27.1836 14.5C22.9375 14.5 21.377 17.6211 21.377 17.6211V14.9863H15.626V34.0469H21.6758V23.9443C21.6758 22.226 22.1608 19.7824 24.9932 19.7822C26.3581 19.7822 28.1494 20.1518 28.1494 23.5068V34.0469H34.1094V22.0537C34.1094 16.3662 30.9713 14.5 27.1836 14.5ZM8.97852 5.48242C7.0621 5.48242 5.50782 7.03573 5.50781 8.95215C5.50781 10.8686 7.06209 12.4219 8.97852 12.4219C10.8948 12.4217 12.4482 10.8685 12.4482 8.95215C12.4482 7.03585 10.8948 5.48261 8.97852 5.48242Z" fill="#75BF44"/>
</svg>
