<svg width="48" height="48" viewBox="0 0 48 48" fill="none" xmlns="http://www.w3.org/2000/svg">
<path fill-rule="evenodd" clip-rule="evenodd" d="M42.6225 13.7569L34.2431 5.37938C33.6805 4.81662 32.9173 4.50046 32.1216 4.50046C31.3258 4.50046 30.5626 4.81662 30 5.37938L6.87939 28.5C6.31423 29.0607 5.99747 29.8245 6.00002 30.6206V39C6.00002 40.6569 7.34316 42 9.00002 42H40.5C41.3284 42 42 41.3284 42 40.5C42 39.6716 41.3284 39 40.5 39H21.6225L42.6225 18C43.1853 17.4374 43.5014 16.6742 43.5014 15.8784C43.5014 15.0827 43.1853 14.3195 42.6225 13.7569ZM25.5 14.1206L28.6294 17.25L12.75 33.1294L9.62064 30L25.5 14.1206ZM9.00002 39V33.6206L14.3794 39H9.00002ZM18 38.3794L14.8725 35.25L30.75 19.3706L33.8794 22.5L18 38.3794ZM36 20.3794L27.6225 12L32.1225 7.5L40.5 15.8794L36 20.3794Z" fill="#121417"/>
</svg>
