<svg width="54" height="50" viewBox="0 0 54 50" fill="none" xmlns="http://www.w3.org/2000/svg">
<path fill-rule="evenodd" clip-rule="evenodd" d="M52.9539 23.3325L37.8345 8.23962C29.4268 -0.0798721 15.813 -0.0798721 7.40531 8.23962L7.38514 8.25961L4.29896 11.4217C3.63394 12.1303 3.66289 13.2362 4.36408 13.9096C5.06527 14.5831 6.18099 14.5766 6.87414 13.895L9.95135 10.744C11.1894 9.51674 12.6022 8.47608 14.1447 7.65519L24.5664 17.9993L3.0506 39.332C2.37792 39.9988 2 40.9032 2 41.8463C2 42.7895 2.37792 43.6939 3.0506 44.3607L7.68771 48.9583C8.36023 49.6253 9.27246 50 10.2237 50C11.1749 50 12.0871 49.6253 12.7596 48.9583L34.2755 27.6257L37.4894 30.8122L41.4474 34.7321C42.1199 35.3991 43.0322 35.7738 43.9833 35.7738C44.9346 35.7738 45.8468 35.3991 46.5193 34.7321L52.9494 28.3568C54.3485 26.9699 54.3505 24.7217 52.9539 23.3325ZM10.2225 46.4429L5.58767 41.8452L20.8281 26.7346L25.4629 31.3322L17.8427 38.8876L10.2225 46.4429ZM33.0069 23.848L28 28.8145L23.3629 24.2213L28.372 19.2548C28.7087 18.9214 28.8979 18.4689 28.8979 17.9971C28.8979 17.5253 28.7087 17.0728 28.372 16.7394L17.762 6.2219C24.0036 4.47901 30.708 6.21326 35.2952 10.7573L45.2059 20.6481L38.7579 27.0346L35.544 23.848C35.2077 23.5142 34.7513 23.3266 34.2755 23.3266C33.7996 23.3266 33.3432 23.5142 33.0069 23.848ZM43.989 32.2166L41.2995 29.5501L47.7228 23.1658L50.4123 25.8324L43.989 32.2166Z" fill="#121417"/>
</svg>
