<svg width="57" height="48" viewBox="0 0 57 48" fill="none" xmlns="http://www.w3.org/2000/svg">
<path fill-rule="evenodd" clip-rule="evenodd" d="M37.0461 24.1987L27.3693 20.6362L23.8068 10.9519C23.3746 9.77797 22.2564 8.998 21.0055 8.998C19.7546 8.998 18.6364 9.77797 18.2043 10.9519L14.638 20.625L4.95363 24.1875C3.77972 24.6196 2.99976 25.7378 2.99976 26.9888C2.99976 28.2397 3.77972 29.3579 4.95363 29.79L14.6249 33.375L18.1874 43.0537C18.6195 44.2277 19.7377 45.0076 20.9886 45.0076C22.2395 45.0076 23.3578 44.2277 23.7899 43.0537L27.3524 33.3769L37.0368 29.8144C38.2107 29.3823 38.9906 28.264 38.9906 27.0131C38.9906 25.7622 38.2107 24.644 37.0368 24.2119L37.0461 24.1987ZM26.323 30.5625C25.5026 30.8636 24.856 31.5102 24.5549 32.3306L20.9924 41.9794L17.4374 32.3231C17.1361 31.5071 16.4928 30.8638 15.6768 30.5625L6.028 27L15.6768 23.4375C16.4928 23.1362 17.1361 22.4929 17.4374 21.6769L20.9999 12.0281L24.5624 21.6769C24.8635 22.4973 25.5101 23.1439 26.3305 23.445L35.9793 27.0075L26.323 30.5625ZM26.9999 7.5C26.9999 6.67157 27.6715 6 28.4999 6H31.4999V3C31.4999 2.17157 32.1715 1.5 32.9999 1.5C33.8283 1.5 34.4999 2.17157 34.4999 3V6H37.4999C38.3283 6 38.9999 6.67157 38.9999 7.5C38.9999 8.32843 38.3283 9 37.4999 9H34.4999V12C34.4999 12.8284 33.8283 13.5 32.9999 13.5C32.1715 13.5 31.4999 12.8284 31.4999 12V9H28.4999C27.6715 9 26.9999 8.32843 26.9999 7.5ZM46.4999 16.5C46.4999 17.3284 45.8283 18 44.9999 18H43.4999V19.5C43.4999 20.3284 42.8283 21 41.9999 21C41.1715 21 40.4999 20.3284 40.4999 19.5V18H38.9999C38.1715 18 37.4999 17.3284 37.4999 16.5C37.4999 15.6716 38.1715 15 38.9999 15H40.4999V13.5C40.4999 12.6716 41.1715 12 41.9999 12C42.8283 12 43.4999 12.6716 43.4999 13.5V15H44.9999C45.8283 15 46.4999 15.6716 46.4999 16.5Z" fill="#121417"/>
</svg>
