<svg width="44" height="48" viewBox="0 0 44 48" fill="none" xmlns="http://www.w3.org/2000/svg">
<path d="M31.6453 27.5C33.4003 27.5 34.9461 28.3933 35.8528 29.75H22.0716C20.5797 29.75 19.149 30.3426 18.0941 31.3975C17.0392 32.4524 16.4466 33.8832 16.4466 35.375V44.375C16.4466 44.7395 16.4803 45.0935 16.5478 45.437C9.93507 45.0185 4.99182 42.6245 1.85532 38.2213C1.1078 37.173 0.705884 35.9177 0.705566 34.6303V32.5603C0.706163 31.2184 1.23949 29.9316 2.18834 28.9828C3.13719 28.0339 4.42394 27.5006 5.76582 27.5H31.6453ZM18.6966 0.511261C20.1739 0.511261 21.6368 0.80225 23.0018 1.36762C24.3667 1.93298 25.6069 2.76165 26.6515 3.80631C27.6962 4.85097 28.5248 6.09116 29.0902 7.45607C29.6556 8.82099 29.9466 10.2839 29.9466 11.7613C29.9466 13.2386 29.6556 14.7015 29.0902 16.0665C28.5248 17.4314 27.6962 18.6716 26.6515 19.7162C25.6069 20.7609 24.3667 21.5895 23.0018 22.1549C21.6368 22.7203 20.1739 23.0113 18.6966 23.0113C15.7129 23.0113 12.8514 21.826 10.7416 19.7162C8.63183 17.6064 7.44657 14.7449 7.44657 11.7613C7.44657 8.77758 8.63183 5.91609 10.7416 3.80631C12.8514 1.69653 15.7129 0.511261 18.6966 0.511261ZM18.6966 35.375C18.6966 34.4799 19.0521 33.6215 19.6851 32.9885C20.318 32.3556 21.1765 32 22.0716 32H40.0716C40.9667 32 41.8251 32.3556 42.458 32.9885C43.091 33.6215 43.4466 34.4799 43.4466 35.375V44.375C43.4466 45.2701 43.091 46.1286 42.458 46.7615C41.8251 47.3944 40.9667 47.75 40.0716 47.75H22.0716C21.1765 47.75 20.318 47.3944 19.6851 46.7615C19.0521 46.1286 18.6966 45.2701 18.6966 44.375V35.375ZM41.1966 36.5C40.5998 36.5 40.0275 36.263 39.6056 35.841C39.1836 35.419 38.9466 34.8468 38.9466 34.25H36.6966C36.6966 35.4435 37.1707 36.5881 38.0146 37.432C38.8585 38.2759 40.0031 38.75 41.1966 38.75V36.5ZM41.1966 41C40.0031 41 38.8585 41.4741 38.0146 42.318C37.1707 43.162 36.6966 44.3065 36.6966 45.5H38.9466C38.9466 44.9033 39.1836 44.331 39.6056 43.909C40.0275 43.4871 40.5998 43.25 41.1966 43.25V41ZM23.1966 34.25C23.1966 34.8468 22.9595 35.419 22.5376 35.841C22.1156 36.263 21.5433 36.5 20.9466 36.5V38.75C22.14 38.75 23.2846 38.2759 24.1285 37.432C24.9725 36.5881 25.4466 35.4435 25.4466 34.25H23.1966ZM25.4466 45.5C25.4466 44.3065 24.9725 43.162 24.1285 42.318C23.2846 41.4741 22.14 41 20.9466 41V43.25C21.5433 43.25 22.1156 43.4871 22.5376 43.909C22.9595 44.331 23.1966 44.9033 23.1966 45.5H25.4466ZM35.0091 39.875C35.0091 38.8307 34.5942 37.8292 33.8558 37.0908C33.1174 36.3524 32.1159 35.9375 31.0716 35.9375C30.0273 35.9375 29.0258 36.3524 28.2873 37.0908C27.5489 37.8292 27.1341 38.8307 27.1341 39.875C27.1341 40.9193 27.5489 41.9208 28.2873 42.6592C29.0258 43.3977 30.0273 43.8125 31.0716 43.8125C32.1159 43.8125 33.1174 43.3977 33.8558 42.6592C34.5942 41.9208 35.0091 40.9193 35.0091 39.875Z" fill="#132A13"/>
</svg>
