<svg width="48" height="48" viewBox="0 0 48 48" fill="none" xmlns="http://www.w3.org/2000/svg">
<g clip-path="url(#clip0_8_446)">
<path fill-rule="evenodd" clip-rule="evenodd" d="M43.0612 40.9388L33.6731 31.5525C39.3258 24.7661 38.6409 14.7339 32.1183 8.7787C25.5956 2.82353 15.5427 3.052 9.29734 9.29734C3.052 15.5427 2.82353 25.5956 8.7787 32.1183C14.7339 38.6409 24.7661 39.3258 31.5525 33.6731L40.9388 43.0612C41.5249 43.6474 42.4751 43.6474 43.0612 43.0612C43.6474 42.4751 43.6474 41.5249 43.0612 40.9388ZM7.5 21C7.5 13.5442 13.5442 7.5 21 7.5C28.4558 7.5 34.5 13.5442 34.5 21C34.5 28.4558 28.4558 34.5 21 34.5C13.5476 34.4917 7.50827 28.4524 7.5 21Z" fill="#121417"/>
</g>
<defs>
<clipPath id="clip0_8_446">
<rect width="48" height="48" fill="white"/>
</clipPath>
</defs>
</svg>
