<svg width="116" height="19" viewBox="0 0 116 19" fill="none" xmlns="http://www.w3.org/2000/svg">
<g clip-path="url(#clip0_1_2863)">
<path d="M9.0709 0.612345C9.41464 -0.204116 10.5854 -0.204115 10.9291 0.612347L12.9579 5.43125C13.1029 5.77545 13.4306 6.01062 13.8067 6.04041L19.0727 6.45749C19.9649 6.52816 20.3267 7.62815 19.6469 8.20342L15.6348 11.5987C15.3483 11.8412 15.223 12.2218 15.3106 12.5844L16.5364 17.661C16.744 18.5212 15.7969 19.201 15.033 18.7402L10.5246 16.0196C10.2025 15.8253 9.79752 15.8253 9.4755 16.0196L4.967 18.7402C4.20312 19.201 3.25596 18.5212 3.46364 17.661L4.68943 12.5844C4.77699 12.2218 4.65183 11.8412 4.36526 11.5987L0.353063 8.20342C-0.326718 7.62815 0.0350679 6.52816 0.927293 6.45749L6.19337 6.04041C6.56951 6.01062 6.89717 5.77545 7.04208 5.43125L9.0709 0.612345Z" fill="black"/>
<path d="M33.0709 0.612345C33.4147 -0.204116 34.5855 -0.204115 34.9292 0.612347L36.958 5.43125C37.103 5.77545 37.4306 6.01062 37.8067 6.04041L43.0728 6.45749C43.965 6.52816 44.3268 7.62815 43.647 8.20342L39.6349 11.5987C39.3483 11.8412 39.2231 12.2218 39.3106 12.5844L40.5364 17.661C40.7441 18.5212 39.797 19.201 39.0331 18.7402L34.5246 16.0196C34.2026 15.8253 33.7976 15.8253 33.4755 16.0196L28.967 18.7402C28.2032 19.201 27.256 18.5212 27.4637 17.661L28.6895 12.5844C28.777 12.2218 28.6519 11.8412 28.3653 11.5987L24.3531 8.20342C23.6733 7.62815 24.0351 6.52816 24.9273 6.45749L30.1934 6.04041C30.5696 6.01062 30.8972 5.77545 31.0421 5.43125L33.0709 0.612345Z" fill="black"/>
<path d="M57.071 0.612345C57.4147 -0.204116 58.5855 -0.204115 58.9292 0.612347L60.958 5.43125C61.103 5.77545 61.4307 6.01062 61.8068 6.04041L67.0728 6.45749C67.965 6.52816 68.3268 7.62815 67.647 8.20342L63.6349 11.5987C63.3484 11.8412 63.2231 12.2218 63.3107 12.5844L64.5365 17.661C64.7441 18.5212 63.797 19.201 63.0331 18.7402L58.5247 16.0196C58.2026 15.8253 57.7976 15.8253 57.4756 16.0196L52.9671 18.7402C52.2032 19.201 51.2561 18.5212 51.4637 17.661L52.6895 12.5844C52.7771 12.2218 52.6519 11.8412 52.3654 11.5987L48.3532 8.20342C47.6734 7.62815 48.0352 6.52816 48.9274 6.45749L54.1935 6.04041C54.5696 6.01062 54.8973 5.77545 55.0422 5.43125L57.071 0.612345Z" fill="black"/>
<path d="M81.0708 0.612345C81.4145 -0.204116 82.5853 -0.204115 82.9291 0.612347L84.9578 5.43125C85.1028 5.77545 85.4305 6.01062 85.8066 6.04041L91.0726 6.45749C91.9648 6.52816 92.3266 7.62815 91.6468 8.20342L87.6347 11.5987C87.3482 11.8412 87.2229 12.2218 87.3105 12.5844L88.5363 17.661C88.7439 18.5212 87.7968 19.201 87.0329 18.7402L82.5245 16.0196C82.2024 15.8253 81.7974 15.8253 81.4754 16.0196L76.9669 18.7402C76.203 19.201 75.2559 18.5212 75.4635 17.661L76.6893 12.5844C76.7769 12.2218 76.6517 11.8412 76.3652 11.5987L72.353 8.20342C71.6732 7.62815 72.035 6.52816 72.9272 6.45749L78.1933 6.04041C78.5694 6.01062 78.8971 5.77545 79.042 5.43125L81.0708 0.612345Z" fill="black"/>
<path d="M105.071 0.612345C105.415 -0.204116 106.585 -0.204115 106.929 0.612347L108.958 5.43125C109.103 5.77545 109.431 6.01062 109.807 6.04041L115.073 6.45749C115.965 6.52816 116.327 7.62815 115.647 8.20342L111.635 11.5987C111.348 11.8412 111.223 12.2218 111.311 12.5844L112.536 17.661C112.744 18.5212 111.797 19.201 111.033 18.7402L106.525 16.0196C106.202 15.8253 105.797 15.8253 105.475 16.0196L100.967 18.7402C100.203 19.201 99.2559 18.5212 99.4636 17.661L100.689 12.5844C100.777 12.2218 100.652 11.8412 100.365 11.5987L96.353 8.20342C95.6732 7.62815 96.035 6.52816 96.9273 6.45749L102.193 6.04041C102.569 6.01062 102.897 5.77545 103.042 5.43125L105.071 0.612345Z" fill="black"/>
</g>
<defs>
<clipPath id="clip0_1_2863">
<rect width="116" height="18.8889" fill="white"/>
</clipPath>
</defs>
</svg>
