{
  "accessors": [
    {
      "bufferView": 2,
      "componentType": 5126,
      "count": 65532,
      "max": [
        5.361352443695068,
        1.648802399635315,
        5.136584281921387
      ],
      "min": [
        -5.339411735534668,
        -0.6100001335144043,
        -5.289997577667236
      ],
      "type": "VEC3"
    },
    {
      "bufferView": 2,
      "byteOffset": 786384,
      "componentType": 5126,
      "count": 65532,
      "max": [
        1.0,
        1.0,
        1.0
      ],
      "min": [
        -1.0,
        -1.0,
        -1.0
      ],
      "type": "VEC3"
    },
    {
      "bufferView": 1,
      "componentType": 5126,
      "count": 65532,
      "max": [
        1201.062744140625,
        804.067626953125
      ],
      "min": [
        0.0,
        -1.584571123123169
      ],
      "type": "VEC2"
    },
    {
      "bufferView": 1,
      "byteOffset": 524256,
      "componentType": 5126,
      "count": 65532,
      "max": [
        4575.50048828125,
        3255.5029296875
      ],
      "min": [
        -4574.50146484375,
        -3431.54638671875
      ],
      "type": "VEC2"
    },
    {
      "bufferView": 0,
      "componentType": 5125,
      "count": 156942,
      "type": "SCALAR"
    },
    {
      "bufferView": 2,
      "byteOffset": 1572768,
      "componentType": 5126,
      "count": 47030,
      "max": [
        5.355000019073486,
        1.6488027572631836,
        5.369998455047607
      ],
      "min": [
        -5.355000972747803,
        -0.6000006198883057,
        -5.369997501373291
      ],
      "type": "VEC3"
    },
    {
      "bufferView": 2,
      "byteOffset": 2137128,
      "componentType": 5126,
      "count": 47030,
      "max": [
        1.0,
        1.0,
        1.0
      ],
      "min": [
        -1.0,
        -1.0,
        -1.0
      ],
      "type": "VEC3"
    },
    {
      "bufferView": 1,
      "byteOffset": 1048512,
      "componentType": 5126,
      "count": 47030,
      "max": [
        0.9988003373146057,
        0.9997870326042175
      ],
      "min": [
        0.0,
        0.0
      ],
      "type": "VEC2"
    },
    {
      "bufferView": 1,
      "byteOffset": 1424752,
      "componentType": 5126,
      "count": 47030,
      "max": [
        93721192.0,
        50368000.0
      ],
      "min": [
        -44308724.0,
        -79039504.0
      ],
      "type": "VEC2"
    },
    {
      "bufferView": 0,
      "byteOffset": 627768,
      "componentType": 5125,
      "count": 196221,
      "type": "SCALAR"
    },
    {
      "bufferView": 2,
      "byteOffset": 2701488,
      "componentType": 5126,
      "count": 468,
      "max": [
        0.07109306007623672,
        -0.11366241425275803,
        0.2616680860519409
      ],
      "min": [
        -0.051737938076257706,
        -1.291349172592163,
        -0.35000452399253845
      ],
      "type": "VEC3"
    },
    {
      "bufferView": 2,
      "byteOffset": 2707104,
      "componentType": 5126,
      "count": 468,
      "max": [
        0.8318201303482056,
        0.6320044994354248,
        0.9999845027923584
      ],
      "min": [
        -0.9998450875282288,
        -0.5656978487968445,
        -0.9999294877052307
      ],
      "type": "VEC3"
    },
    {
      "bufferView": 0,
      "byteOffset": 1412652,
      "componentType": 5125,
      "count": 1977,
      "type": "SCALAR"
    },
    {
      "bufferView": 2,
      "byteOffset": 2712720,
      "componentType": 5126,
      "count": 7460,
      "max": [
        8.615979194641113,
        1.1695739030838013,
        1.5149379968643188
      ],
      "min": [
        -1.289376974105835,
        -0.012064525857567787,
        -8.5535249710083
      ],
      "type": "VEC3"
    },
    {
      "bufferView": 2,
      "byteOffset": 2802240,
      "componentType": 5126,
      "count": 7460,
      "max": [
        1.0,
        1.0,
        1.0
      ],
      "min": [
        -1.0,
        -1.0,
        -1.0
      ],
      "type": "VEC3"
    },
    {
      "bufferView": 1,
      "byteOffset": 1800992,
      "componentType": 5126,
      "count": 7460,
      "max": [
        1.0,
        1.0
      ],
      "min": [
        0.0,
        0.009263813495635986
      ],
      "type": "VEC2"
    },
    {
      "bufferView": 0,
      "byteOffset": 1420560,
      "componentType": 5125,
      "count": 32055,
      "type": "SCALAR"
    },
    {
      "bufferView": 2,
      "byteOffset": 2891760,
      "componentType": 5126,
      "count": 16,
      "max": [
        3.318997621536255,
        -1.134774088859558,
        -0.06719253212213516
      ],
      "min": [
        -3.930983781814575,
        -2.336249828338623,
        -0.0971938893198967
      ],
      "type": "VEC3"
    },
    {
      "bufferView": 2,
      "byteOffset": 2891952,
      "componentType": 5126,
      "count": 16,
      "max": [
        1.0,
        1.0,
        -0.0
      ],
      "min": [
        -1.0,
        0.0,
        -2.543031541790697e-06
      ],
      "type": "VEC3"
    },
    {
      "bufferView": 0,
      "byteOffset": 1548780,
      "componentType": 5125,
      "count": 24,
      "type": "SCALAR"
    },
    {
      "bufferView": 2,
      "byteOffset": 2892144,
      "componentType": 5126,
      "count": 96,
      "max": [
        -0.022212382405996323,
        0.7603395581245422,
        0.20453201234340668
      ],
      "min": [
        -0.04174330458045006,
        0.07896563410758972,
        -0.20417141914367676
      ],
      "type": "VEC3"
    },
    {
      "bufferView": 2,
      "byteOffset": 2893296,
      "componentType": 5126,
      "count": 96,
      "max": [
        2.802360995701747e-06,
        1.0,
        1.0
      ],
      "min": [
        -1.953169430635171e-06,
        -1.0,
        -1.0
      ],
      "type": "VEC3"
    },
    {
      "bufferView": 0,
      "byteOffset": 1548876,
      "componentType": 5125,
      "count": 288,
      "type": "SCALAR"
    },
    {
      "bufferView": 2,
      "byteOffset": 2894448,
      "componentType": 5126,
      "count": 44,
      "max": [
        0.4309033155441284,
        1.0735797882080078,
        5.10249137878418
      ],
      "min": [
        -1.4989501237869263,
        -1.0735797882080078,
        -5.10249137878418
      ],
      "type": "VEC3"
    },
    {
      "bufferView": 2,
      "byteOffset": 2894976,
      "componentType": 5126,
      "count": 44,
      "max": [
        1.0,
        1.0,
        1.0
      ],
      "min": [
        -1.0,
        -1.0,
        -1.0
      ],
      "type": "VEC3"
    },
    {
      "bufferView": 0,
      "byteOffset": 1550028,
      "componentType": 5125,
      "count": 66,
      "type": "SCALAR"
    },
    {
      "bufferView": 2,
      "byteOffset": 2895504,
      "componentType": 5126,
      "count": 4,
      "max": [
        1.4989477396011353,
        -0.5236544609069824,
        0.6110827326774597
      ],
      "min": [
        1.031823754310608,
        -0.9430333375930786,
        0.6110827326774597
      ],
      "type": "VEC3"
    },
    {
      "bufferView": 2,
      "byteOffset": 2895552,
      "componentType": 5126,
      "count": 4,
      "max": [
        0.0,
        0.0,
        1.0
      ],
      "min": [
        0.0,
        0.0,
        1.0
      ],
      "type": "VEC3"
    },
    {
      "bufferView": 0,
      "byteOffset": 1550292,
      "componentType": 5125,
      "count": 6,
      "type": "SCALAR"
    },
    {
      "bufferView": 2,
      "byteOffset": 2895600,
      "componentType": 5126,
      "count": 773,
      "max": [
        4.81248664855957,
        0.5900002717971802,
        5.026236534118652
      ],
      "min": [
        -4.81248664855957,
        -0.5900002717971802,
        -5.026236534118652
      ],
      "type": "VEC3"
    },
    {
      "bufferView": 2,
      "byteOffset": 2904876,
      "componentType": 5126,
      "count": 773,
      "max": [
        1.0,
        1.0,
        1.0
      ],
      "min": [
        -1.0,
        -1.0,
        -1.0
      ],
      "type": "VEC3"
    },
    {
      "bufferView": 0,
      "byteOffset": 1550316,
      "componentType": 5125,
      "count": 2973,
      "type": "SCALAR"
    },
    {
      "bufferView": 2,
      "byteOffset": 2914152,
      "componentType": 5126,
      "count": 1444,
      "max": [
        8.833852767944336,
        2.2922897338867188,
        1.8865023851394653
      ],
      "min": [
        0.1456337571144104,
        0.46599388122558594,
        -0.4066685736179352
      ],
      "type": "VEC3"
    },
    {
      "bufferView": 2,
      "byteOffset": 2931480,
      "componentType": 5126,
      "count": 1444,
      "max": [
        0.9998621940612793,
        0.9999992251396179,
        0.7068204879760742
      ],
      "min": [
        -1.0,
        -0.9999999403953552,
        -1.0
      ],
      "type": "VEC3"
    },
    {
      "bufferView": 1,
      "byteOffset": 1860672,
      "componentType": 5126,
      "count": 1444,
      "max": [
        1.0,
        1.0
      ],
      "min": [
        0.0,
        0.017304420471191406
      ],
      "type": "VEC2"
    },
    {
      "bufferView": 0,
      "byteOffset": 1562208,
      "componentType": 5125,
      "count": 2166,
      "type": "SCALAR"
    },
    {
      "bufferView": 2,
      "byteOffset": 2948808,
      "componentType": 5126,
      "count": 3123,
      "max": [
        5.087843418121338,
        0.8077357411384583,
        2.1687471866607666
      ],
      "min": [
        1.1453639268875122,
        0.07395744323730469,
        0.014920448884367943
      ],
      "type": "VEC3"
    },
    {
      "bufferView": 2,
      "byteOffset": 2986284,
      "componentType": 5126,
      "count": 3123,
      "max": [
        1.0,
        1.0,
        1.0
      ],
      "min": [
        -1.0,
        -1.0,
        -1.0
      ],
      "type": "VEC3"
    },
    {
      "bufferView": 1,
      "byteOffset": 1872224,
      "componentType": 5126,
      "count": 3123,
      "max": [
        0.9985508918762207,
        0.9933927059173584
      ],
      "min": [
        0.03434305638074875,
        0.012738227844238281
      ],
      "type": "VEC2"
    },
    {
      "bufferView": 1,
      "byteOffset": 1897208,
      "componentType": 5126,
      "count": 3123,
      "max": [
        377.3584899902344,
        472.6981201171875
      ],
      "min": [
        -377.3584899902344,
        -470.6981201171875
      ],
      "type": "VEC2"
    },
    {
      "bufferView": 0,
      "byteOffset": 1570872,
      "componentType": 5125,
      "count": 8466,
      "type": "SCALAR"
    }
  ],
  "asset": {
    "extras": {
      "author": "SrMonteiro (https://sketchfab.com/crispimrafael)",
      "license": "CC-BY-4.0 (http://creativecommons.org/licenses/by/4.0/)",
      "source": "https://sketchfab.com/3d-models/apartment-floor-plan-2e85bf66e2dd4d48b683d6843e040a2b",
      "title": "apartment floor plan"
    },
    "generator": "Sketchfab-16.72.0",
    "version": "2.0"
  },
  "bufferViews": [
    {
      "buffer": 0,
      "byteLength": 1604736,
      "name": "floatBufferViews",
      "target": 34963
    },
    {
      "buffer": 0,
      "byteLength": 1922192,
      "byteOffset": 1604736,
      "byteStride": 8,
      "name": "floatBufferViews",
      "target": 34962
    },
    {
      "buffer": 0,
      "byteLength": 3023760,
      "byteOffset": 3526928,
      "byteStride": 12,
      "name": "floatBufferViews",
      "target": 34962
    }
  ],
  "buffers": [
    {
      "byteLength": 6550688,
      "uri": "scene.bin"
    }
  ],
  "extensionsUsed": [
    "KHR_materials_unlit"
  ],
  "images": [
    {
      "uri": "textures/render_baseColor.jpeg"
    },
    {
      "uri": "textures/moveis_baseColor.jpeg"
    },
    {
      "uri": "textures/planta_baseColor.png"
    }
  ],
  "materials": [
    {
      "doubleSided": true,
      "extensions": {
        "KHR_materials_unlit": {}
      },
      "name": "render",
      "pbrMetallicRoughness": {
        "baseColorTexture": {
          "index": 0
        },
        "metallicFactor": 0.0
      }
    },
    {
      "doubleSided": true,
      "extensions": {
        "KHR_materials_unlit": {}
      },
      "name": "cortina",
      "pbrMetallicRoughness": {
        "baseColorFactor": [
          0.288816,
          0.288816,
          0.288816,
          1.0
        ],
        "metallicFactor": 0.0
      }
    },
    {
      "extensions": {
        "KHR_materials_unlit": {}
      },
      "name": "moveis",
      "pbrMetallicRoughness": {
        "baseColorTexture": {
          "index": 1
        },
        "metallicFactor": 0.0
      }
    },
    {
      "emissiveFactor": [
        1.0,
        0.493616,
        0.0986892
      ],
      "extensions": {
        "KHR_materials_unlit": {}
      },
      "name": "luz_ripado",
      "pbrMetallicRoughness": {
        "baseColorFactor": [
          0.588,
          0.588,
          0.588,
          1.0
        ],
        "metallicFactor": 0.0
      }
    },
    {
      "extensions": {
        "KHR_materials_unlit": {}
      },
      "name": "espelho",
      "pbrMetallicRoughness": {
        "baseColorFactor": [
          0.06848636392779497,
          0.06848636392779497,
          0.06848636392779497,
          1.0
        ],
        "metallicFactor": 0.0
      }
    },
    {
      "extensions": {
        "KHR_materials_unlit": {}
      },
      "name": "vidro_escuro",
      "pbrMetallicRoughness": {
        "baseColorFactor": [
          0.0,
          0.0,
          0.0,
          1.0
        ],
        "metallicFactor": 0.0
      }
    },
    {
      "alphaMode": "BLEND",
      "extensions": {
        "KHR_materials_unlit": {}
      },
      "name": "vidro",
      "pbrMetallicRoughness": {
        "baseColorFactor": [
          0.0,
          0.0,
          0.0,
          0.41
        ],
        "metallicFactor": 0.0
      }
    },
    {
      "alphaCutoff": 0.4,
      "alphaMode": "MASK",
      "doubleSided": true,
      "extensions": {
        "KHR_materials_unlit": {}
      },
      "name": "planta",
      "pbrMetallicRoughness": {
        "baseColorTexture": {
          "index": 2
        },
        "metallicFactor": 0.0
      }
    },
    {
      "doubleSided": true,
      "extensions": {
        "KHR_materials_unlit": {}
      },
      "name": "metais",
      "pbrMetallicRoughness": {
        "baseColorTexture": {
          "index": 0
        },
        "metallicFactor": 0.0
      }
    }
  ],
  "meshes": [
    {
      "name": "Object_0",
      "primitives": [
        {
          "attributes": {
            "NORMAL": 1,
            "POSITION": 0,
            "TEXCOORD_0": 2,
            "TEXCOORD_1": 3
          },
          "indices": 4,
          "material": 0,
          "mode": 4
        }
      ]
    },
    {
      "name": "Object_1",
      "primitives": [
        {
          "attributes": {
            "NORMAL": 6,
            "POSITION": 5,
            "TEXCOORD_0": 7,
            "TEXCOORD_1": 8
          },
          "indices": 9,
          "material": 0,
          "mode": 4
        }
      ]
    },
    {
      "name": "Object_2",
      "primitives": [
        {
          "attributes": {
            "NORMAL": 11,
            "POSITION": 10
          },
          "indices": 12,
          "material": 1,
          "mode": 4
        }
      ]
    },
    {
      "name": "Object_3",
      "primitives": [
        {
          "attributes": {
            "NORMAL": 14,
            "POSITION": 13,
            "TEXCOORD_0": 15
          },
          "indices": 16,
          "material": 2,
          "mode": 4
        }
      ]
    },
    {
      "name": "Object_4",
      "primitives": [
        {
          "attributes": {
            "NORMAL": 18,
            "POSITION": 17
          },
          "indices": 19,
          "material": 3,
          "mode": 4
        }
      ]
    },
    {
      "name": "Object_5",
      "primitives": [
        {
          "attributes": {
            "NORMAL": 21,
            "POSITION": 20
          },
          "indices": 22,
          "material": 3,
          "mode": 4
        }
      ]
    },
    {
      "name": "Object_6",
      "primitives": [
        {
          "attributes": {
            "NORMAL": 24,
            "POSITION": 23
          },
          "indices": 25,
          "material": 4,
          "mode": 4
        }
      ]
    },
    {
      "name": "Object_7",
      "primitives": [
        {
          "attributes": {
            "NORMAL": 27,
            "POSITION": 26
          },
          "indices": 28,
          "material": 5,
          "mode": 4
        }
      ]
    },
    {
      "name": "Object_8",
      "primitives": [
        {
          "attributes": {
            "NORMAL": 30,
            "POSITION": 29
          },
          "indices": 31,
          "material": 6,
          "mode": 4
        }
      ]
    },
    {
      "name": "Object_9",
      "primitives": [
        {
          "attributes": {
            "NORMAL": 33,
            "POSITION": 32,
            "TEXCOORD_0": 34
          },
          "indices": 35,
          "material": 7,
          "mode": 4
        }
      ]
    },
    {
      "name": "Object_10",
      "primitives": [
        {
          "attributes": {
            "NORMAL": 37,
            "POSITION": 36,
            "TEXCOORD_0": 38,
            "TEXCOORD_1": 39
          },
          "indices": 40,
          "material": 8,
          "mode": 4
        }
      ]
    }
  ],
  "nodes": [
    {
      "children": [
        1
      ],
      "matrix": [
        1.0,
        0.0,
        0.0,
        0.0,
        0.0,
        2.220446049250313e-16,
        -1.0,
        0.0,
        0.0,
        1.0,
        2.220446049250313e-16,
        0.0,
        0.0,
        0.0,
        0.0,
        1.0
      ],
      "name": "Sketchfab_model"
    },
    {
      "children": [
        2
      ],
      "name": "root"
    },
    {
      "children": [
        3,
        6,
        8,
        10,
        12,
        14,
        16,
        18,
        20,
        22
      ],
      "matrix": [
        1.0,
        0.0,
        0.0,
        0.0,
        0.0,
        2.220446049250313e-16,
        1.0,
        0.0,
        0.0,
        -1.0,
        2.220446049250313e-16,
        0.0,
        0.0,
        0.0,
        0.0,
        1.0
      ],
      "name": "GLTF_SceneRootNode"
    },
    {
      "children": [
        4,
        5
      ],
      "matrix": [
        1.0,
        0.0,
        0.0,
        0.0,
        0.0,
        1.0,
        0.0,
        0.0,
        0.0,
        0.0,
        1.0,
        0.0,
        19.66261863708496,
        0.5999999642372131,
        -16.85814094543457,
        1.0
      ],
      "name": "rendertotexture_0"
    },
    {
      "mesh": 0,
      "name": "Object_4"
    },
    {
      "mesh": 1,
      "name": "Object_5"
    },
    {
      "children": [
        7
      ],
      "matrix": [
        1.0,
        0.0,
        0.0,
        0.0,
        0.0,
        1.0,
        0.0,
        0.0,
        0.0,
        0.0,
        1.0,
        0.0,
        22.560131072998047,
        1.299999713897705,
        -12.041993141174316,
        1.0
      ],
      "name": "cortina_1"
    },
    {
      "mesh": 2,
      "name": "Object_7"
    },
    {
      "children": [
        9
      ],
      "matrix": [
        0.9999999999999847,
        0.0,
        1.748455531469504e-07,
        0.0,
        0.0,
        1.0,
        0.0,
        0.0,
        -1.748455531469504e-07,
        -0.0,
        0.9999999999999847,
        0.0,
        15.886537551879883,
        0.0,
        -13.377838134765625,
        1.0
      ],
      "name": "moveis_2"
    },
    {
      "mesh": 3,
      "name": "Object_9"
    },
    {
      "children": [
        11
      ],
      "matrix": [
        1.0,
        0.0,
        0.0,
        0.0,
        0.0,
        1.0,
        0.0,
        0.0,
        0.0,
        0.0,
        1.0,
        0.0,
        19.333635330200195,
        2.33477520942688,
        -14.755931854248047,
        1.0
      ],
      "name": "luz ripado_3"
    },
    {
      "mesh": 4,
      "name": "Object_11"
    },
    {
      "children": [
        13
      ],
      "matrix": [
        1.0,
        0.0,
        0.0,
        0.0,
        0.0,
        1.0,
        0.0,
        0.0,
        0.0,
        0.0,
        1.0,
        0.0,
        16.138864517211914,
        1.2114521265029907,
        -12.303171157836914,
        1.0
      ],
      "name": "luz parede_4"
    },
    {
      "mesh": 5,
      "name": "Object_13"
    },
    {
      "children": [
        15
      ],
      "matrix": [
        1.0,
        0.0,
        0.0,
        0.0,
        0.0,
        1.0,
        0.0,
        0.0,
        0.0,
        0.0,
        1.0,
        0.0,
        21.013046264648438,
        1.1752222776412964,
        -16.825626373291016,
        1.0
      ],
      "name": "espelho_5"
    },
    {
      "mesh": 6,
      "name": "Object_15"
    },
    {
      "children": [
        17
      ],
      "matrix": [
        1.0,
        0.0,
        0.0,
        0.0,
        0.0,
        1.0,
        0.0,
        0.0,
        0.0,
        0.0,
        1.0,
        0.0,
        21.013046264648438,
        1.1752222776412964,
        -16.825626373291016,
        1.0
      ],
      "name": "vidro escuro_6"
    },
    {
      "mesh": 7,
      "name": "Object_17"
    },
    {
      "children": [
        19
      ],
      "matrix": [
        1.0,
        0.0,
        0.0,
        0.0,
        0.0,
        1.0,
        0.0,
        0.0,
        0.0,
        0.0,
        1.0,
        0.0,
        19.55510139465332,
        0.6100002527236938,
        -17.01437759399414,
        1.0
      ],
      "name": "vidro_7"
    },
    {
      "mesh": 8,
      "name": "Object_19"
    },
    {
      "children": [
        21
      ],
      "matrix": [
        1.0,
        0.0,
        0.0,
        0.0,
        0.0,
        1.0,
        0.0,
        0.0,
        0.0,
        0.0,
        1.0,
        0.0,
        15.886537551879883,
        0.0,
        -13.377838134765625,
        1.0
      ],
      "name": "plantas_8"
    },
    {
      "mesh": 9,
      "name": "Object_21"
    },
    {
      "children": [
        23
      ],
      "matrix": [
        1.0,
        0.0,
        0.0,
        0.0,
        0.0,
        1.0,
        0.0,
        0.0,
        0.0,
        0.0,
        1.0,
        0.0,
        19.66261863708496,
        0.5999999642372131,
        -16.85814094543457,
        1.0
      ],
      "name": "metais_9"
    },
    {
      "mesh": 10,
      "name": "Object_23"
    }
  ],
  "samplers": [
    {
      "magFilter": 9729,
      "minFilter": 9987,
      "wrapS": 10497,
      "wrapT": 10497
    }
  ],
  "scene": 0,
  "scenes": [
    {
      "name": "Sketchfab_Scene",
      "nodes": [
        0
      ]
    }
  ],
  "textures": [
    {
      "sampler": 0,
      "source": 0
    },
    {
      "sampler": 0,
      "source": 1
    },
    {
      "sampler": 0,
      "source": 2
    }
  ]
}
